<svg
                    viewBox="0 0 14 13"
                    fill="none"
                    xmlns="http://www.w3.org/2000/svg"
                  >
                    <path
                      fill-rule="evenodd"
                      clip-rule="evenodd"
                      d="M13.4 6.44711C13.4 6.87993 13.3559 7.31215 13.2694 7.73346C13.185 8.14477 13.06 8.54857 12.8962 8.93459C12.7362 9.31378 12.5378 9.67918 12.3059 10.02C12.0775 10.3586 11.8143 10.6762 11.5252 10.9658C11.2355 11.2542 10.9168 11.5166 10.5783 11.746C10.2364 11.9763 9.87049 12.1744 9.49108 12.3352C9.10451 12.4981 8.69977 12.6229 8.28882 12.7071C7.86695 12.7939 7.43316 12.8382 6.99971 12.8382C6.56594 12.8382 6.13217 12.7939 5.7109 12.7071C5.29932 12.6229 4.89461 12.4981 4.50834 12.3352C4.12895 12.1744 3.76267 11.9763 3.42078 11.746C3.08233 11.5166 2.76356 11.2542 2.47448 10.9658C2.1851 10.6762 1.92195 10.3586 1.69319 10.02C1.46255 9.67918 1.26378 9.31375 1.10316 8.93459C0.939379 8.54857 0.814078 8.14474 0.729383 7.73346C0.643761 7.31215 0.599998 6.87993 0.599998 6.44711C0.599998 6.01397 0.643736 5.58082 0.729408 5.16044C0.814103 4.74913 0.939404 4.3447 1.10318 3.95931C1.26381 3.57985 1.46258 3.21411 1.69322 2.87332C1.92198 2.53443 2.18513 2.21735 2.47451 1.92744C2.76359 1.63908 3.08235 1.37728 3.42081 1.14823C3.76269 0.91697 4.12898 0.718833 4.50836 0.557792C4.89464 0.39455 5.29932 0.26943 5.71093 0.185808C6.1322 0.0996841 6.56597 0.0559845 6.99974 0.0559845C7.43318 0.0559845 7.86695 0.0996841 8.28885 0.185808C8.6998 0.269455 9.10451 0.394575 9.49111 0.557792C9.87049 0.718808 10.2365 0.91697 10.5783 1.14823C10.9168 1.37728 11.2356 1.63908 11.5253 1.92744C11.8143 2.21735 12.0775 2.53443 12.3059 2.87332C12.5378 3.21411 12.7362 3.57987 12.8962 3.95931C13.06 4.3447 13.185 4.74913 13.2694 5.16044C13.3559 5.58082 13.4 6.01397 13.4 6.44711ZM4.66769 1.51052C3.14353 2.22922 2.00597 3.63164 1.65126 5.32179C1.79535 5.32304 4.07297 5.35176 6.69716 4.65552C5.75119 2.97722 4.74051 1.6076 4.66769 1.51052ZM7.14999 5.49594C4.33579 6.33724 1.63533 6.27671 1.53846 6.27298C1.53688 6.33164 1.53407 6.38842 1.53407 6.44711C1.53407 7.8492 2.06379 9.12742 2.93446 10.0939C2.93258 10.0911 4.4283 7.44134 7.37782 6.48893C7.44906 6.46522 7.52158 6.44398 7.59345 6.42339C7.45628 6.11322 7.30655 5.80239 7.14999 5.49594ZM10.6093 2.35092C9.647 1.50365 8.38352 0.989707 6.99969 0.989707C6.5556 0.989707 6.12464 1.04339 5.71181 1.14262C5.79367 1.25248 6.82031 2.61245 7.75503 4.32629C9.81734 3.55425 10.5958 2.37089 10.6093 2.35092ZM7.96602 7.32776C7.95384 7.33178 7.94167 7.33526 7.92977 7.33961C4.70497 8.4622 3.65187 10.7245 3.64047 10.7492C4.56835 11.4698 5.73216 11.9045 6.99973 11.9045C7.75662 11.9045 8.47759 11.7506 9.13356 11.472C9.05262 10.9951 8.73511 9.32373 7.96602 7.32776ZM10.0539 10.9733C11.2812 10.1463 12.1528 8.83318 12.3959 7.31212C12.2834 7.27593 10.7542 6.79253 8.99008 7.07496C9.70699 9.04225 9.99828 10.6444 10.0539 10.9733ZM8.17572 5.13954C8.30258 5.39982 8.42543 5.66471 8.53885 5.93094C8.57918 6.02644 8.61856 6.12007 8.65699 6.21367C10.5346 5.97774 12.3844 6.37469 12.4634 6.3909C12.4509 5.09709 11.9875 3.90968 11.2206 2.98005C11.2103 2.99468 10.3337 4.2595 8.17572 5.13954Z"
                      fill="white"
                    />
                  </svg>
