<svg
                    viewBox="0 0 14 13"
                    fill="none"
                    xmlns="http://www.w3.org/2000/svg"
                  >
                    <path
                      fill-rule="evenodd"
                      clip-rule="evenodd"
                      d="M7.0006 0.0559845C5.26245 0.0559845 5.04431 0.0635846 4.36164 0.0946516C3.6803 0.125852 3.21523 0.23372 2.80829 0.391988C2.38735 0.555456 2.03028 0.774125 1.67454 1.13C1.31854 1.48573 1.09987 1.8428 0.935869 2.26361C0.7772 2.67068 0.669199 3.13588 0.638532 3.81696C0.607999 4.49963 0.599998 4.7179 0.599998 6.45605C0.599998 8.1942 0.607732 8.41167 0.638666 9.09434C0.669999 9.77568 0.777867 10.2408 0.936002 10.6477C1.0996 11.0686 1.31827 11.4257 1.67414 11.7814C2.02975 12.1374 2.38682 12.3566 2.80749 12.5201C3.21469 12.6784 3.6799 12.7863 4.3611 12.8174C5.04378 12.8485 5.26178 12.8561 6.9998 12.8561C8.73808 12.8561 8.95555 12.8485 9.63823 12.8174C10.3196 12.7863 10.7852 12.6784 11.1924 12.5201C11.6132 12.3566 11.9697 12.1374 12.3253 11.7814C12.6813 11.4257 12.9 11.0686 13.064 10.6478C13.2213 10.2408 13.3293 9.77555 13.3613 9.09448C13.392 8.4118 13.4 8.1942 13.4 6.45605C13.4 4.7179 13.392 4.49976 13.3613 3.81709C13.3293 3.13575 13.2213 2.67068 13.064 2.26374C12.9 1.8428 12.6813 1.48573 12.3253 1.13C11.9693 0.773992 11.6133 0.555323 11.192 0.391988C10.784 0.23372 10.3186 0.125852 9.63729 0.0946516C8.95462 0.0635846 8.73728 0.0559845 6.9986 0.0559845H7.0006ZM6.42643 1.20931C6.59683 1.20905 6.78697 1.20931 7.00057 1.20931C8.70939 1.20931 8.91192 1.21545 9.58673 1.24611C10.2107 1.27465 10.5494 1.37891 10.775 1.46651C11.0737 1.58252 11.2866 1.72118 11.5105 1.94519C11.7345 2.16919 11.8732 2.38252 11.9894 2.68119C12.077 2.90653 12.1814 3.2452 12.2098 3.86921C12.2405 4.54388 12.2472 4.74655 12.2472 6.45457C12.2472 8.16259 12.2405 8.36525 12.2098 9.03993C12.1813 9.66393 12.077 10.0026 11.9894 10.2279C11.8734 10.5266 11.7345 10.7393 11.5105 10.9631C11.2865 11.1872 11.0738 11.3258 10.775 11.4418C10.5497 11.5298 10.2107 11.6338 9.58673 11.6624C8.91206 11.693 8.70939 11.6997 7.00057 11.6997C5.29162 11.6997 5.08908 11.693 4.41441 11.6624C3.7904 11.6336 3.45173 11.5293 3.226 11.4417C2.92733 11.3257 2.71399 11.187 2.48999 10.963C2.26599 10.739 2.12732 10.5262 2.01105 10.2274C1.92345 10.0021 1.81905 9.6634 1.79065 9.03939C1.75998 8.36472 1.75385 8.16205 1.75385 6.45297C1.75385 4.74388 1.75998 4.54228 1.79065 3.86761C1.81918 3.2436 1.92345 2.90493 2.01105 2.67933C2.12705 2.38066 2.26599 2.16732 2.48999 1.94332C2.71399 1.71932 2.92733 1.58065 3.226 1.46438C3.4516 1.37638 3.7904 1.27238 4.41441 1.24371C5.00482 1.21705 5.23362 1.20905 6.42643 1.20771V1.20931ZM10.4169 2.27199C9.99287 2.27199 9.64887 2.6156 9.64887 3.03973C9.64887 3.46374 9.99287 3.80774 10.4169 3.80774C10.8409 3.80774 11.1849 3.46374 11.1849 3.03973C11.1849 2.61573 10.8409 2.27199 10.4169 2.27199ZM7.00061 3.16933C5.18552 3.16933 3.71391 4.64095 3.71391 6.45603C3.71391 8.27112 5.18552 9.74207 7.00061 9.74207C8.8157 9.74207 10.2868 8.27112 10.2868 6.45603C10.2868 4.64095 8.8157 3.16933 7.00061 3.16933ZM7.00058 4.32268C8.17873 4.32268 9.13394 5.27775 9.13394 6.45603C9.13394 7.63418 8.17873 8.58939 7.00058 8.58939C5.82231 8.58939 4.86723 7.63418 4.86723 6.45603C4.86723 5.27775 5.82231 4.32268 7.00058 4.32268Z"
                      fill="white"
                    />
                  </svg>
