<svg
                    viewBox="0 0 12 11"
                    fill="none"
                    xmlns="http://www.w3.org/2000/svg"
                  >
                    <path
                      fill-rule="evenodd"
                      clip-rule="evenodd"
                      d="M5.6406 3.20976L5.66578 3.62498L5.2461 3.57414C3.71843 3.37924 2.38383 2.71826 1.25067 1.60817L0.696681 1.05735L0.553988 1.46411C0.251813 2.37083 0.444869 3.32839 1.0744 3.97242C1.41015 4.32833 1.33461 4.37917 0.755438 4.16732C0.553988 4.09953 0.377719 4.04868 0.360931 4.07411C0.302175 4.13342 0.503625 4.90456 0.663106 5.20963C0.881344 5.63333 1.32621 6.04855 1.81305 6.2943L2.22434 6.4892L1.73751 6.49768C1.26746 6.49768 1.25067 6.50615 1.30103 6.68411C1.46891 7.23492 2.13201 7.81962 2.87066 8.07384L3.39108 8.2518L2.93781 8.52297C2.26631 8.91277 1.4773 9.1331 0.688288 9.15005C0.310569 9.15852 0 9.19242 0 9.21784C0 9.30258 1.02404 9.77712 1.61999 9.96355C3.40786 10.5144 5.53148 10.2771 7.1263 9.33647C8.25945 8.66703 9.39261 7.33661 9.92142 6.04855C10.2068 5.36216 10.4922 4.108 10.4922 3.50635C10.4922 3.11654 10.5174 3.0657 10.9874 2.59963C11.2644 2.32846 11.5246 2.03187 11.575 1.94713C11.6589 1.78612 11.6505 1.78612 11.2224 1.93018C10.509 2.1844 10.4083 2.1505 10.7608 1.76917C11.021 1.498 11.3316 1.00651 11.3316 0.862452C11.3316 0.83703 11.2057 0.8794 11.063 0.955666C10.9119 1.04041 10.5761 1.16752 10.3243 1.24378L9.87105 1.38784L9.45976 1.1082C9.23313 0.955666 8.91417 0.786186 8.74629 0.735342C8.31821 0.616705 7.6635 0.633654 7.27738 0.769238C6.22816 1.15057 5.56506 2.13356 5.6406 3.20976Z"
                      fill="white"
                    />
                  </svg>
