<svg
                    viewBox="0 0 14 10"
                    fill="none"
                    xmlns="http://www.w3.org/2000/svg"
                  >
                    <path
                      fill-rule="evenodd"
                      clip-rule="evenodd"
                      d="M12.0008 0.33068C12.5516 0.481812 12.9853 0.927121 13.1325 1.49262C13.4 2.51753 13.4 4.65602 13.4 4.65602C13.4 4.65602 13.4 6.79442 13.1325 7.81941C12.9853 8.38491 12.5516 8.83022 12.0008 8.98142C11.0027 9.25602 7.00001 9.25602 7.00001 9.25602C7.00001 9.25602 2.99732 9.25602 1.99913 8.98142C1.44837 8.83022 1.01462 8.38491 0.867424 7.81941C0.600006 6.79442 0.600006 4.65602 0.600006 4.65602C0.600006 4.65602 0.600006 2.51753 0.867424 1.49262C1.01462 0.927121 1.44837 0.481812 1.99913 0.33068C2.99732 0.056015 7.00001 0.056015 7.00001 0.056015C7.00001 0.056015 11.0027 0.056015 12.0008 0.33068ZM5.80002 2.85597V6.85597L9.00002 4.85605L5.80002 2.85597Z"
                      fill="white"
                    />
                  </svg>
